<?xml version="1.0" encoding="UTF-8" standalone="no"?>
<!DOCTYPE svg PUBLIC "-//W3C//DTD SVG 1.1//EN"
 "http://www.w3.org/Graphics/SVG/1.1/DTD/svg11.dtd">
<!-- Generated by graphviz version 2.36.0 (20140111.2315)
 -->
<!-- Title: %3 Pages: 1 -->
<svg width="404pt" height="312pt"
 viewBox="0.00 0.00 404.00 312.00" xmlns="http://www.w3.org/2000/svg" xmlns:xlink="http://www.w3.org/1999/xlink">
<g id="graph0" class="graph" transform="scale(1 1) rotate(0) translate(4 308)">
<title>%3</title>
<g id="clust1" class="cluster"><title>cluster_allianceunits</title>
<polygon fill="none" stroke="black" points="8,-8 8,-296 388,-296 388,-8 8,-8"/>
<text text-anchor="middle" x="198" y="-280.8" font-family="Times,serif" font-size="14.00">Alliance unit economy</text>
</g>
<!-- supporters -->
<g id="node1" class="node"><title>supporters</title>
<ellipse fill="none" stroke="black" cx="63" cy="-152" rx="46.8977" ry="18"/>
<text text-anchor="middle" x="63" y="-147.8" font-family="Times,serif" font-size="14.00">supporters</text>
</g>
<!-- supply -->
<g id="node2" class="node"><title>supply</title>
<ellipse fill="none" stroke="black" cx="346" cy="-152" rx="33.8857" ry="18"/>
<text text-anchor="middle" x="346" y="-147.8" font-family="Times,serif" font-size="14.00">supply</text>
</g>
<!-- supporters&#45;&gt;supply -->
<g id="edge5" class="edge"><title>supporters&#45;&gt;supply</title>
<path fill="none" stroke="black" d="M74.9181,-134.193C91.9346,-108.36 127.495,-61.5547 172,-43 202.356,-30.344 215.926,-29.6878 246,-43 284.058,-59.8459 313.749,-99.3492 330.323,-125.879"/>
<polygon fill="black" stroke="black" points="327.463,-127.914 335.631,-134.663 333.455,-124.294 327.463,-127.914"/>
<text text-anchor="middle" x="209" y="-59.8" font-family="Times,serif" font-size="14.00">conspiracy</text>
<text text-anchor="middle" x="209" y="-45.8" font-family="Times,serif" font-size="14.00">payment</text>
</g>
<!-- map -->
<g id="node3" class="node"><title>map</title>
<ellipse fill="none" stroke="black" cx="209" cy="-98" rx="27" ry="18"/>
<text text-anchor="middle" x="209" y="-93.8" font-family="Times,serif" font-size="14.00">map</text>
</g>
<!-- supporters&#45;&gt;map -->
<g id="edge4" class="edge"><title>supporters&#45;&gt;map</title>
<path fill="none" stroke="black" d="M97.3984,-139.476C120.953,-130.643 152.333,-118.875 175.65,-110.131"/>
<polygon fill="black" stroke="black" points="176.969,-113.375 185.103,-106.586 174.511,-106.82 176.969,-113.375"/>
<text text-anchor="middle" x="141" y="-128.8" font-family="Times,serif" font-size="14.00">train</text>
</g>
<!-- supply&#45;&gt;supporters -->
<g id="edge1" class="edge"><title>supply&#45;&gt;supporters</title>
<path fill="none" stroke="black" d="M312.08,-152C264.937,-152 177.556,-152 120.098,-152"/>
<polygon fill="black" stroke="black" points="120.087,-148.5 110.087,-152 120.087,-155.5 120.087,-148.5"/>
<text text-anchor="middle" x="209" y="-154.8" font-family="Times,serif" font-size="14.00">each evening</text>
</g>
<!-- supply&#45;&gt;supporters -->
<g id="edge2" class="edge"><title>supply&#45;&gt;supporters</title>
<path fill="none" stroke="black" d="M314.863,-158.935C295.346,-163.065 269.314,-167.898 246,-170 213.244,-172.954 204.777,-172.713 172,-170 153.147,-168.44 132.63,-165.372 114.592,-162.205"/>
<polygon fill="black" stroke="black" points="115.036,-158.729 104.572,-160.392 113.789,-165.617 115.036,-158.729"/>
<text text-anchor="middle" x="209" y="-174.8" font-family="Times,serif" font-size="14.00">outrage</text>
</g>
<!-- supply&#45;&gt;supporters -->
<g id="edge3" class="edge"><title>supply&#45;&gt;supporters</title>
<path fill="none" stroke="black" d="M320.913,-164.118C301.303,-173.271 272.61,-185.068 246,-190 213.662,-195.993 204.419,-195.537 172,-190 148.595,-186.003 123.518,-177.462 103.425,-169.488"/>
<polygon fill="black" stroke="black" points="104.572,-166.176 93.9903,-165.642 101.929,-172.658 104.572,-166.176"/>
<text text-anchor="middle" x="209" y="-196.8" font-family="Times,serif" font-size="14.00">educate</text>
</g>
<!-- map&#45;&gt;supply -->
<g id="edge6" class="edge"><title>map&#45;&gt;supply</title>
<path fill="none" stroke="black" d="M232.596,-107.038C253.443,-115.377 284.748,-127.899 309.031,-137.612"/>
<polygon fill="black" stroke="black" points="308.038,-140.985 318.623,-141.449 310.638,-134.485 308.038,-140.985"/>
<text text-anchor="middle" x="279" y="-133.8" font-family="Times,serif" font-size="14.00">death</text>
</g>
</g>
</svg>
