<?xml version="1.0" encoding="UTF-8" standalone="no"?>
<!DOCTYPE svg PUBLIC "-//W3C//DTD SVG 1.1//EN"
 "http://www.w3.org/Graphics/SVG/1.1/DTD/svg11.dtd">
<!-- Generated by graphviz version 2.36.0 (20140111.2315)
 -->
<!-- Title: %3 Pages: 1 -->
<svg width="604pt" height="298pt"
 viewBox="0.00 0.00 604.00 298.00" xmlns="http://www.w3.org/2000/svg" xmlns:xlink="http://www.w3.org/1999/xlink">
<g id="graph0" class="graph" transform="scale(1 1) rotate(0) translate(4 294)">
<title>%3</title>
<g id="clust1" class="cluster"><title>cluster_alliancecards</title>
<polygon fill="none" stroke="black" points="8,-8 8,-282 588,-282 588,-8 8,-8"/>
<text text-anchor="middle" x="298" y="-266.8" font-family="Times,serif" font-size="14.00">Alliance card economy</text>
</g>
<!-- deck -->
<g id="node1" class="node"><title>deck</title>
<ellipse fill="none" stroke="black" cx="61" cy="-208" rx="27" ry="18"/>
<text text-anchor="middle" x="61" y="-203.8" font-family="Times,serif" font-size="14.00">deck</text>
</g>
<!-- hand -->
<g id="node2" class="node"><title>hand</title>
<ellipse fill="none" stroke="black" cx="230" cy="-140" rx="27.0958" ry="18"/>
<text text-anchor="middle" x="230" y="-135.8" font-family="Times,serif" font-size="14.00">hand</text>
</g>
<!-- deck&#45;&gt;hand -->
<g id="edge1" class="edge"><title>deck&#45;&gt;hand</title>
<path fill="none" stroke="black" d="M86.3756,-201.122C111.391,-193.715 151.184,-180.96 184,-166 189.575,-163.458 195.359,-160.436 200.848,-157.366"/>
<polygon fill="black" stroke="black" points="202.817,-160.27 209.72,-152.232 199.311,-154.212 202.817,-160.27"/>
<text text-anchor="middle" x="154" y="-190.8" font-family="Times,serif" font-size="14.00">income</text>
</g>
<!-- discard -->
<g id="node3" class="node"><title>discard</title>
<ellipse fill="none" stroke="black" cx="544" cy="-148" rx="35.7887" ry="18"/>
<text text-anchor="middle" x="544" y="-143.8" font-family="Times,serif" font-size="14.00">discard</text>
</g>
<!-- hand&#45;&gt;discard -->
<g id="edge2" class="edge"><title>hand&#45;&gt;discard</title>
<path fill="none" stroke="black" d="M239.847,-123.178C247.731,-109.616 260.419,-90.905 276,-79 324.573,-41.8869 349.913,-36.7651 410,-48 447.482,-55.0083 459.477,-56.1441 490,-79 505.42,-90.5466 518.629,-107.713 528.004,-122.034"/>
<polygon fill="black" stroke="black" points="525.046,-123.904 533.331,-130.508 530.972,-120.179 525.046,-123.904"/>
<text text-anchor="middle" x="383" y="-50.8" font-family="Times,serif" font-size="14.00">limit</text>
</g>
<!-- hand&#45;&gt;discard -->
<g id="edge3" class="edge"><title>hand&#45;&gt;discard</title>
<path fill="none" stroke="black" d="M252.072,-129.282C285.388,-113.647 352.37,-87.5252 410,-98 444.801,-104.326 482.344,-119.252 508.638,-131.159"/>
<polygon fill="black" stroke="black" points="507.244,-134.371 517.79,-135.388 510.18,-128.016 507.244,-134.371"/>
<text text-anchor="middle" x="383" y="-100.8" font-family="Times,serif" font-size="14.00">craft</text>
</g>
<!-- hand&#45;&gt;discard -->
<g id="edge4" class="edge"><title>hand&#45;&gt;discard</title>
<path fill="none" stroke="black" d="M257.644,-138.62C263.678,-138.362 270.058,-138.132 276,-138 354.258,-136.262 445.36,-141.16 498.369,-144.701"/>
<polygon fill="black" stroke="black" points="498.232,-148.2 508.447,-145.389 498.709,-141.216 498.232,-148.2"/>
<text text-anchor="middle" x="383" y="-142.8" font-family="Times,serif" font-size="14.00">educate</text>
</g>
<!-- hand&#45;&gt;discard -->
<g id="edge5" class="edge"><title>hand&#45;&gt;discard</title>
<path fill="none" stroke="black" d="M257.298,-137.13C279.456,-135.665 311.666,-135.8 338,-145 347.316,-148.255 346.61,-154.964 356,-158 404.417,-173.656 463.53,-166.43 502.162,-158.45"/>
<polygon fill="black" stroke="black" points="502.979,-161.854 512.006,-156.308 501.491,-155.014 502.979,-161.854"/>
<text text-anchor="middle" x="383" y="-168.8" font-family="Times,serif" font-size="14.00">train</text>
</g>
<!-- slot -->
<g id="node4" class="node"><title>slot</title>
<ellipse fill="none" stroke="black" cx="383" cy="-234" rx="27" ry="18"/>
<text text-anchor="middle" x="383" y="-229.8" font-family="Times,serif" font-size="14.00">slot</text>
</g>
<!-- hand&#45;&gt;slot -->
<g id="edge7" class="edge"><title>hand&#45;&gt;slot</title>
<path fill="none" stroke="black" d="M257.287,-143.509C284.806,-147.633 325.701,-155.18 338,-165 352.291,-176.41 346.169,-186.58 356,-202 357.809,-204.837 359.829,-207.711 361.924,-210.512"/>
<polygon fill="black" stroke="black" points="359.35,-212.901 368.288,-218.591 364.849,-208.57 359.35,-212.901"/>
<text text-anchor="middle" x="307" y="-167.8" font-family="Times,serif" font-size="14.00">secret</text>
</g>
<!-- hand&#45;&gt;slot -->
<g id="edge8" class="edge"><title>hand&#45;&gt;slot</title>
<path fill="none" stroke="black" d="M245.211,-155.075C253.525,-163.143 264.604,-172.69 276,-179 301.213,-192.962 312.592,-184.397 338,-198 345.464,-201.996 352.866,-207.356 359.41,-212.718"/>
<polygon fill="black" stroke="black" points="357.318,-215.535 367.18,-219.407 361.885,-210.23 357.318,-215.535"/>
<text text-anchor="middle" x="307" y="-200.8" font-family="Times,serif" font-size="14.00">conspiracy</text>
</g>
<!-- slot&#45;&gt;hand -->
<g id="edge6" class="edge"><title>slot&#45;&gt;hand</title>
<path fill="none" stroke="black" d="M355.76,-235.46C332.801,-235.447 299.535,-232.178 276,-216 258.887,-204.237 247.287,-183.652 240.156,-166.87"/>
<polygon fill="black" stroke="black" points="243.394,-165.54 236.466,-157.524 236.883,-168.11 243.394,-165.54"/>
<text text-anchor="middle" x="307" y="-236.8" font-family="Times,serif" font-size="14.00">play secret</text>
</g>
<!-- slot&#45;&gt;discard -->
<g id="edge9" class="edge"><title>slot&#45;&gt;discard</title>
<path fill="none" stroke="black" d="M395.966,-218.071C404.071,-208.234 415.542,-196.006 428,-188 434.679,-183.708 473.127,-170.677 503.755,-160.642"/>
<polygon fill="black" stroke="black" points="504.953,-163.933 513.374,-157.504 502.782,-157.278 504.953,-163.933"/>
<text text-anchor="middle" x="459" y="-204.8" font-family="Times,serif" font-size="14.00">perform</text>
<text text-anchor="middle" x="459" y="-190.8" font-family="Times,serif" font-size="14.00">conspiracy</text>
</g>
<!-- slot&#45;&gt;discard -->
<g id="edge10" class="edge"><title>slot&#45;&gt;discard</title>
<path fill="none" stroke="black" d="M410.208,-234.706C432.84,-234.168 465.642,-230.55 490,-216 506.6,-206.084 519.943,-188.859 529.089,-174.227"/>
<polygon fill="black" stroke="black" points="532.149,-175.928 534.233,-165.54 526.126,-172.362 532.149,-175.928"/>
<text text-anchor="middle" x="459" y="-235.8" font-family="Times,serif" font-size="14.00">incite mob</text>
</g>
<!-- cat -->
<g id="node5" class="node"><title>cat</title>
<ellipse fill="none" stroke="black" stroke-dasharray="5,2" cx="61" cy="-154" rx="27" ry="18"/>
<text text-anchor="middle" x="61" y="-149.8" font-family="Times,serif" font-size="14.00">cat</text>
</g>
<!-- cat&#45;&gt;hand -->
<g id="edge11" class="edge"><title>cat&#45;&gt;hand</title>
<path fill="none" stroke="black" stroke-dasharray="5,2" d="M88.0938,-151.812C116.199,-149.456 161.121,-145.69 192.671,-143.046"/>
<polygon fill="black" stroke="black" points="193.142,-146.518 202.814,-142.195 192.557,-139.543 193.142,-146.518"/>
<text text-anchor="middle" x="154" y="-150.8" font-family="Times,serif" font-size="14.00">incite mob</text>
</g>
<!-- vagabond -->
<g id="node6" class="node"><title>vagabond</title>
<ellipse fill="none" stroke="black" stroke-dasharray="5,2" cx="61" cy="-90" rx="44.475" ry="18"/>
<text text-anchor="middle" x="61" y="-85.8" font-family="Times,serif" font-size="14.00">vagabond</text>
</g>
<!-- vagabond&#45;&gt;hand -->
<g id="edge12" class="edge"><title>vagabond&#45;&gt;hand</title>
<path fill="none" stroke="black" stroke-dasharray="5,2" d="M98.7125,-80.3776C123.891,-75.7427 157.42,-73.5507 184,-86 196.819,-92.004 207.26,-103.653 214.846,-114.599"/>
<polygon fill="black" stroke="black" points="211.96,-116.583 220.308,-123.106 217.85,-112.8 211.96,-116.583"/>
<text text-anchor="middle" x="154" y="-88.8" font-family="Times,serif" font-size="14.00">pay</text>
</g>
<!-- vagabond&#45;&gt;hand -->
<g id="edge13" class="edge"><title>vagabond&#45;&gt;hand</title>
<path fill="none" stroke="black" stroke-dasharray="5,2" d="M97.542,-100.338C121.902,-107.461 154.941,-117.193 184,-126 187.577,-127.084 191.311,-128.227 195.032,-129.374"/>
<polygon fill="black" stroke="black" points="194.144,-132.763 204.732,-132.378 196.215,-126.076 194.144,-132.763"/>
<text text-anchor="middle" x="154" y="-128.8" font-family="Times,serif" font-size="14.00">give</text>
</g>
</g>
</svg>
