<?xml version="1.0" encoding="UTF-8" standalone="no"?>
<!DOCTYPE svg PUBLIC "-//W3C//DTD SVG 1.1//EN"
 "http://www.w3.org/Graphics/SVG/1.1/DTD/svg11.dtd">
<!-- Generated by graphviz version 2.36.0 (20140111.2315)
 -->
<!-- Title: %3 Pages: 1 -->
<svg width="606pt" height="279pt"
 viewBox="0.00 0.00 606.00 279.00" xmlns="http://www.w3.org/2000/svg" xmlns:xlink="http://www.w3.org/1999/xlink">
<g id="graph0" class="graph" transform="scale(1 1) rotate(0) translate(4 275)">
<title>%3</title>
<g id="clust1" class="cluster"><title>cluster_eyriecards</title>
<polygon fill="none" stroke="black" points="8,-8 8,-263 590,-263 590,-8 8,-8"/>
<text text-anchor="middle" x="299" y="-247.8" font-family="Times,serif" font-size="14.00">Eyrie card economy</text>
</g>
<!-- deck -->
<g id="node1" class="node"><title>deck</title>
<ellipse fill="none" stroke="black" cx="61" cy="-207" rx="27" ry="18"/>
<text text-anchor="middle" x="61" y="-202.8" font-family="Times,serif" font-size="14.00">deck</text>
</g>
<!-- hand -->
<g id="node2" class="node"><title>hand</title>
<ellipse fill="none" stroke="black" cx="236" cy="-126" rx="27.0958" ry="18"/>
<text text-anchor="middle" x="236" y="-121.8" font-family="Times,serif" font-size="14.00">hand</text>
</g>
<!-- deck&#45;&gt;hand -->
<g id="edge1" class="edge"><title>deck&#45;&gt;hand</title>
<path fill="none" stroke="black" d="M84.6459,-198.273C118.731,-185.094 180.284,-161.102 190,-156 196.255,-152.715 202.721,-148.769 208.734,-144.834"/>
<polygon fill="black" stroke="black" points="210.813,-147.654 217.141,-139.157 206.895,-141.853 210.813,-147.654"/>
<text text-anchor="middle" x="157" y="-184.8" font-family="Times,serif" font-size="14.00">income</text>
</g>
<!-- deck&#45;&gt;hand -->
<g id="edge2" class="edge"><title>deck&#45;&gt;hand</title>
<path fill="none" stroke="black" d="M87.5779,-211.359C114.959,-214.656 158.682,-215.855 190,-197 206.462,-187.089 217.895,-168.59 225.117,-152.96"/>
<polygon fill="black" stroke="black" points="228.362,-154.272 229.076,-143.701 221.926,-151.519 228.362,-154.272"/>
<text text-anchor="middle" x="157" y="-215.8" font-family="Times,serif" font-size="14.00">intelligence</text>
</g>
<!-- discard -->
<g id="node3" class="node"><title>discard</title>
<ellipse fill="none" stroke="black" cx="546" cy="-107" rx="35.7887" ry="18"/>
<text text-anchor="middle" x="546" y="-102.8" font-family="Times,serif" font-size="14.00">discard</text>
</g>
<!-- hand&#45;&gt;discard -->
<g id="edge3" class="edge"><title>hand&#45;&gt;discard</title>
<path fill="none" stroke="black" d="M254.362,-112.567C262.324,-107.232 272.166,-101.724 282,-99 357.734,-78.0229 450.447,-88.8516 503.12,-98.212"/>
<polygon fill="black" stroke="black" points="502.635,-101.681 513.104,-100.055 503.905,-94.7978 502.635,-101.681"/>
<text text-anchor="middle" x="400" y="-91.8" font-family="Times,serif" font-size="14.00">limit</text>
</g>
<!-- played -->
<g id="node4" class="node"><title>played</title>
<ellipse fill="none" stroke="black" cx="400" cy="-144" rx="33.8596" ry="18"/>
<text text-anchor="middle" x="400" y="-139.8" font-family="Times,serif" font-size="14.00">played</text>
</g>
<!-- hand&#45;&gt;played -->
<g id="edge4" class="edge"><title>hand&#45;&gt;played</title>
<path fill="none" stroke="black" d="M258.466,-115.485C265.757,-112.441 274.068,-109.528 282,-108 310.804,-102.453 320.041,-99.1262 348,-108 357.407,-110.986 366.574,-116.402 374.483,-122.143"/>
<polygon fill="black" stroke="black" points="372.48,-125.019 382.522,-128.399 376.78,-119.495 372.48,-125.019"/>
<text text-anchor="middle" x="315" y="-110.8" font-family="Times,serif" font-size="14.00">intelligence</text>
</g>
<!-- hand&#45;&gt;played -->
<g id="edge5" class="edge"><title>hand&#45;&gt;played</title>
<path fill="none" stroke="black" d="M263.028,-128.892C288.31,-131.701 327.122,-136.014 356.817,-139.313"/>
<polygon fill="black" stroke="black" points="356.578,-142.808 366.903,-140.434 357.351,-135.851 356.578,-142.808"/>
<text text-anchor="middle" x="315" y="-141.8" font-family="Times,serif" font-size="14.00">manouver</text>
</g>
<!-- hand&#45;&gt;played -->
<g id="edge6" class="edge"><title>hand&#45;&gt;played</title>
<path fill="none" stroke="black" d="M252.813,-140.414C260.915,-146.828 271.311,-153.675 282,-157 307.669,-164.986 337.848,-161.333 361.126,-155.894"/>
<polygon fill="black" stroke="black" points="362.139,-159.248 370.97,-153.394 360.416,-152.463 362.139,-159.248"/>
<text text-anchor="middle" x="315" y="-163.8" font-family="Times,serif" font-size="14.00">build</text>
</g>
<!-- vagabond -->
<g id="node6" class="node"><title>vagabond</title>
<ellipse fill="none" stroke="black" stroke-dasharray="5,2" cx="61" cy="-71" rx="44.475" ry="18"/>
<text text-anchor="middle" x="61" y="-66.8" font-family="Times,serif" font-size="14.00">vagabond</text>
</g>
<!-- hand&#45;&gt;vagabond -->
<g id="edge12" class="edge"><title>hand&#45;&gt;vagabond</title>
<path fill="none" stroke="black" stroke-dasharray="5,2" d="M225.627,-109.058C217.846,-96.8664 205.551,-81.3295 190,-74 166.073,-62.7227 136.732,-61.2816 112.181,-62.9688"/>
<polygon fill="black" stroke="black" points="111.638,-59.5029 101.982,-63.8639 112.25,-66.4761 111.638,-59.5029"/>
<text text-anchor="middle" x="157" y="-76.8" font-family="Times,serif" font-size="14.00">steal</text>
</g>
<!-- played&#45;&gt;discard -->
<g id="edge7" class="edge"><title>played&#45;&gt;discard</title>
<path fill="none" stroke="black" d="M417.496,-128.454C426.848,-120.71 439.213,-112.134 452,-108 467.502,-102.988 485.231,-101.772 501.023,-102.137"/>
<polygon fill="black" stroke="black" points="500.934,-105.637 511.079,-102.582 501.243,-98.6434 500.934,-105.637"/>
<text text-anchor="middle" x="472" y="-110.8" font-family="Times,serif" font-size="14.00">discard</text>
</g>
<!-- played&#45;&gt;discard -->
<g id="edge8" class="edge"><title>played&#45;&gt;discard</title>
<path fill="none" stroke="black" d="M431.407,-136.959C449.126,-132.778 471.876,-127.278 492,-122 496.162,-120.908 500.499,-119.737 504.82,-118.547"/>
<polygon fill="black" stroke="black" points="506.093,-121.826 514.785,-115.769 504.213,-115.083 506.093,-121.826"/>
<text text-anchor="middle" x="472" y="-135.8" font-family="Times,serif" font-size="14.00">craft</text>
</g>
<!-- cat -->
<g id="node5" class="node"><title>cat</title>
<ellipse fill="none" stroke="black" stroke-dasharray="5,2" cx="61" cy="-145" rx="27" ry="18"/>
<text text-anchor="middle" x="61" y="-140.8" font-family="Times,serif" font-size="14.00">cat</text>
</g>
<!-- cat&#45;&gt;hand -->
<g id="edge9" class="edge"><title>cat&#45;&gt;hand</title>
<path fill="none" stroke="black" stroke-dasharray="5,2" d="M87.8998,-142.156C117.329,-138.923 165.565,-133.626 198.728,-129.984"/>
<polygon fill="black" stroke="black" points="199.365,-133.435 208.923,-128.864 198.601,-126.477 199.365,-133.435"/>
<text text-anchor="middle" x="157" y="-140.8" font-family="Times,serif" font-size="14.00">incite mob</text>
</g>
<!-- vagabond&#45;&gt;hand -->
<g id="edge10" class="edge"><title>vagabond&#45;&gt;hand</title>
<path fill="none" stroke="black" stroke-dasharray="5,2" d="M96.5933,-81.9979C127.068,-91.6865 171.184,-105.712 201.368,-115.308"/>
<polygon fill="black" stroke="black" points="200.44,-118.685 211.03,-118.38 202.561,-112.014 200.44,-118.685"/>
<text text-anchor="middle" x="157" y="-114.8" font-family="Times,serif" font-size="14.00">pay</text>
</g>
<!-- vagabond&#45;&gt;hand -->
<g id="edge11" class="edge"><title>vagabond&#45;&gt;hand</title>
<path fill="none" stroke="black" stroke-dasharray="5,2" d="M83.4053,-55.1493C110.084,-37.5035 156.271,-14.0514 190,-35 212.002,-48.665 223.572,-76.6276 229.437,-97.9704"/>
<polygon fill="black" stroke="black" points="226.077,-98.9596 231.879,-107.824 232.871,-97.276 226.077,-98.9596"/>
<text text-anchor="middle" x="157" y="-37.8" font-family="Times,serif" font-size="14.00">give</text>
</g>
</g>
</svg>
