<?xml version="1.0" encoding="UTF-8" standalone="no"?>
<!DOCTYPE svg PUBLIC "-//W3C//DTD SVG 1.1//EN"
 "http://www.w3.org/Graphics/SVG/1.1/DTD/svg11.dtd">
<!-- Generated by graphviz version 2.36.0 (20140111.2315)
 -->
<!-- Title: %3 Pages: 1 -->
<svg width="612pt" height="148pt"
 viewBox="0.00 0.00 612.00 148.00" xmlns="http://www.w3.org/2000/svg" xmlns:xlink="http://www.w3.org/1999/xlink">
<g id="graph0" class="graph" transform="scale(1 1) rotate(0) translate(4 144)">
<title>%3</title>
<g id="clust1" class="cluster"><title>cluster_eyrieunits</title>
<polygon fill="none" stroke="black" points="8,-8 8,-132 596,-132 596,-8 8,-8"/>
<text text-anchor="middle" x="302" y="-116.8" font-family="Times,serif" font-size="14.00">Eyrie unit economy</text>
</g>
<!-- graveyard -->
<g id="node1" class="node"><title>graveyard</title>
<ellipse fill="none" stroke="black" cx="62" cy="-51" rx="45.4182" ry="18"/>
<text text-anchor="middle" x="62" y="-46.8" font-family="Times,serif" font-size="14.00">graveyard</text>
</g>
<!-- supply -->
<g id="node2" class="node"><title>supply</title>
<ellipse fill="none" stroke="black" cx="220" cy="-34" rx="33.8857" ry="18"/>
<text text-anchor="middle" x="220" y="-29.8" font-family="Times,serif" font-size="14.00">supply</text>
</g>
<!-- graveyard&#45;&gt;supply -->
<g id="edge1" class="edge"><title>graveyard&#45;&gt;supply</title>
<path fill="none" stroke="black" d="M106.041,-46.3097C127.996,-43.9171 154.611,-41.0168 176.49,-38.6325"/>
<polygon fill="black" stroke="black" points="176.93,-42.1054 186.492,-37.5426 176.171,-35.1466 176.93,-42.1054"/>
<text text-anchor="middle" x="147" y="-47.8" font-family="Times,serif" font-size="14.00">turmoil</text>
</g>
<!-- map -->
<g id="node3" class="node"><title>map</title>
<ellipse fill="none" stroke="black" cx="383" cy="-84" rx="27" ry="18"/>
<text text-anchor="middle" x="383" y="-79.8" font-family="Times,serif" font-size="14.00">map</text>
</g>
<!-- supply&#45;&gt;map -->
<g id="edge2" class="edge"><title>supply&#45;&gt;map</title>
<path fill="none" stroke="black" d="M253.398,-37.2273C277.382,-40.3597 310.521,-46.2709 338,-57 343.776,-59.2553 349.644,-62.2637 355.132,-65.4534"/>
<polygon fill="black" stroke="black" points="353.58,-68.6089 363.926,-70.8916 357.262,-62.6553 353.58,-68.6089"/>
<text text-anchor="middle" x="305" y="-73.8" font-family="Times,serif" font-size="14.00">birdsong</text>
<text text-anchor="middle" x="305" y="-59.8" font-family="Times,serif" font-size="14.00">recruitment</text>
</g>
<!-- map&#45;&gt;graveyard -->
<g id="edge3" class="edge"><title>map&#45;&gt;graveyard</title>
<path fill="none" stroke="black" d="M355.943,-84.6901C350.044,-84.8191 343.807,-84.934 338,-85 308.669,-85.3333 301.251,-87.1915 272,-85 206.562,-80.0974 190.688,-74.0302 126,-63 121.802,-62.2841 117.452,-61.5143 113.089,-60.7226"/>
<polygon fill="black" stroke="black" points="113.42,-57.2247 102.951,-58.8507 112.149,-64.1084 113.42,-57.2247"/>
<text text-anchor="middle" x="220" y="-85.8" font-family="Times,serif" font-size="14.00">death</text>
</g>
<!-- alliance -->
<g id="node4" class="node"><title>alliance</title>
<ellipse fill="none" stroke="black" stroke-dasharray="5,2" cx="550" cy="-46" rx="37.7006" ry="18"/>
<text text-anchor="middle" x="550" y="-41.8" font-family="Times,serif" font-size="14.00">alliance</text>
</g>
<!-- map&#45;&gt;alliance -->
<g id="edge4" class="edge"><title>map&#45;&gt;alliance</title>
<path fill="none" stroke="black" stroke-dasharray="5,2" d="M408.702,-78.311C434.306,-72.4143 474.837,-63.0799 505.766,-55.957"/>
<polygon fill="black" stroke="black" points="506.891,-59.2894 515.851,-53.6343 505.32,-52.468 506.891,-59.2894"/>
<text text-anchor="middle" x="461" y="-76.8" font-family="Times,serif" font-size="14.00">intelligence</text>
</g>
<!-- alliance&#45;&gt;supply -->
<g id="edge5" class="edge"><title>alliance&#45;&gt;supply</title>
<path fill="none" stroke="black" stroke-dasharray="5,2" d="M512.414,-44.2506C470.341,-42.2828 399.195,-39.0895 338,-37 313.457,-36.162 286.01,-35.4466 263.872,-34.9248"/>
<polygon fill="black" stroke="black" points="263.864,-31.4238 253.785,-34.6917 263.702,-38.4219 263.864,-31.4238"/>
<text text-anchor="middle" x="383" y="-42.8" font-family="Times,serif" font-size="14.00">death</text>
</g>
</g>
</svg>
