<?xml version="1.0" encoding="UTF-8" standalone="no"?>
<!DOCTYPE svg PUBLIC "-//W3C//DTD SVG 1.1//EN"
 "http://www.w3.org/Graphics/SVG/1.1/DTD/svg11.dtd">
<!-- Generated by graphviz version 2.36.0 (20140111.2315)
 -->
<!-- Title: %3 Pages: 1 -->
<svg width="434pt" height="168pt"
 viewBox="0.00 0.00 434.00 168.00" xmlns="http://www.w3.org/2000/svg" xmlns:xlink="http://www.w3.org/1999/xlink">
<g id="graph0" class="graph" transform="scale(1 1) rotate(0) translate(4 164)">
<title>%3</title>
<g id="clust1" class="cluster"><title>cluster_marquisunits</title>
<polygon fill="none" stroke="black" points="8,-8 8,-152 418,-152 418,-8 8,-8"/>
<text text-anchor="middle" x="213" y="-136.8" font-family="Times,serif" font-size="14.00">Marquis card economy</text>
</g>
<!-- deck -->
<g id="node1" class="node"><title>deck</title>
<ellipse fill="none" stroke="black" cx="61" cy="-104" rx="27" ry="18"/>
<text text-anchor="middle" x="61" y="-99.8" font-family="Times,serif" font-size="14.00">deck</text>
</g>
<!-- hand -->
<g id="node2" class="node"><title>hand</title>
<ellipse fill="none" stroke="black" cx="212" cy="-71" rx="27.0958" ry="18"/>
<text text-anchor="middle" x="212" y="-66.8" font-family="Times,serif" font-size="14.00">hand</text>
</g>
<!-- deck&#45;&gt;hand -->
<g id="edge1" class="edge"><title>deck&#45;&gt;hand</title>
<path fill="none" stroke="black" d="M86.9392,-98.4765C111.328,-93.075 148.686,-84.8012 176.035,-78.7439"/>
<polygon fill="black" stroke="black" points="176.973,-82.1211 185.979,-76.5415 175.459,-75.2867 176.973,-82.1211"/>
<text text-anchor="middle" x="145" y="-91.8" font-family="Times,serif" font-size="14.00">income</text>
</g>
<!-- hand&#45;&gt;hand -->
<g id="edge5" class="edge"><title>hand&#45;&gt;hand</title>
<path fill="none" stroke="black" d="M200.398,-87.6641C197.82,-97.625 201.688,-107 212,-107 218.606,-107 222.568,-103.152 223.884,-97.7682"/>
<polygon fill="black" stroke="black" points="227.38,-97.5624 223.602,-87.6641 220.382,-97.7579 227.38,-97.5624"/>
<text text-anchor="middle" x="212" y="-109.8" font-family="Times,serif" font-size="14.00">incite mob</text>
</g>
<!-- discard -->
<g id="node3" class="node"><title>discard</title>
<ellipse fill="none" stroke="black" cx="374" cy="-71" rx="35.7887" ry="18"/>
<text text-anchor="middle" x="374" y="-66.8" font-family="Times,serif" font-size="14.00">discard</text>
</g>
<!-- hand&#45;&gt;discard -->
<g id="edge2" class="edge"><title>hand&#45;&gt;discard</title>
<path fill="none" stroke="black" d="M226.825,-55.8063C235.017,-47.9589 246.104,-39.1727 258,-35 284.002,-25.8789 293.662,-26.9007 320,-35 329.785,-38.0089 339.384,-43.507 347.666,-49.3157"/>
<polygon fill="black" stroke="black" points="345.672,-52.1948 355.774,-55.3901 349.869,-46.5928 345.672,-52.1948"/>
<text text-anchor="middle" x="289" y="-37.8" font-family="Times,serif" font-size="14.00">limit</text>
</g>
<!-- hand&#45;&gt;discard -->
<g id="edge3" class="edge"><title>hand&#45;&gt;discard</title>
<path fill="none" stroke="black" d="M239.421,-71C263.452,-71 299.421,-71 327.983,-71"/>
<polygon fill="black" stroke="black" points="328.134,-74.5001 338.134,-71 328.134,-67.5001 328.134,-74.5001"/>
<text text-anchor="middle" x="289" y="-73.8" font-family="Times,serif" font-size="14.00">craft</text>
</g>
<!-- hand&#45;&gt;discard -->
<g id="edge4" class="edge"><title>hand&#45;&gt;discard</title>
<path fill="none" stroke="black" d="M235.997,-80.2442C242.95,-82.6064 250.684,-84.8128 258,-86 285.2,-90.4139 292.706,-89.788 320,-86 324.545,-85.3692 329.248,-84.4479 333.891,-83.3671"/>
<polygon fill="black" stroke="black" points="335.061,-86.6802 343.872,-80.7973 333.315,-79.9013 335.061,-86.6802"/>
<text text-anchor="middle" x="289" y="-91.8" font-family="Times,serif" font-size="14.00">hire hawks</text>
</g>
<!-- vagabond -->
<g id="node4" class="node"><title>vagabond</title>
<ellipse fill="none" stroke="black" stroke-dasharray="5,2" cx="61" cy="-42" rx="44.475" ry="18"/>
<text text-anchor="middle" x="61" y="-37.8" font-family="Times,serif" font-size="14.00">vagabond</text>
</g>
<!-- vagabond&#45;&gt;hand -->
<g id="edge6" class="edge"><title>vagabond&#45;&gt;hand</title>
<path fill="none" stroke="black" stroke-dasharray="5,2" d="M99.0596,-32.495C119.359,-29.0059 144.655,-27.5125 166,-35 174.55,-37.9991 182.682,-43.3816 189.622,-49.0858"/>
<polygon fill="black" stroke="black" points="187.378,-51.7737 197.175,-55.8063 192.031,-46.5441 187.378,-51.7737"/>
<text text-anchor="middle" x="145" y="-37.8" font-family="Times,serif" font-size="14.00">pay</text>
</g>
<!-- vagabond&#45;&gt;hand -->
<g id="edge7" class="edge"><title>vagabond&#45;&gt;hand</title>
<path fill="none" stroke="black" stroke-dasharray="5,2" d="M101.538,-49.6953C124.462,-54.157 153.097,-59.7303 175.329,-64.0574"/>
<polygon fill="black" stroke="black" points="174.878,-67.5351 185.362,-66.0101 176.215,-60.664 174.878,-67.5351"/>
<text text-anchor="middle" x="145" y="-64.8" font-family="Times,serif" font-size="14.00">give</text>
</g>
</g>
</svg>
