<?xml version="1.0" encoding="UTF-8" standalone="no"?>
<!DOCTYPE svg PUBLIC "-//W3C//DTD SVG 1.1//EN"
 "http://www.w3.org/Graphics/SVG/1.1/DTD/svg11.dtd">
<!-- Generated by graphviz version 2.36.0 (20140111.2315)
 -->
<!-- Title: %3 Pages: 1 -->
<svg width="370pt" height="131pt"
 viewBox="0.00 0.00 370.00 131.00" xmlns="http://www.w3.org/2000/svg" xmlns:xlink="http://www.w3.org/1999/xlink">
<g id="graph0" class="graph" transform="scale(1 1) rotate(0) translate(4 127)">
<title>%3</title>
<g id="clust1" class="cluster"><title>cluster_marquisunits</title>
<polygon fill="none" stroke="black" points="8,-8 8,-115 354,-115 354,-8 8,-8"/>
<text text-anchor="middle" x="181" y="-99.8" font-family="Times,serif" font-size="14.00">Marquis unit economy</text>
</g>
<!-- keep -->
<g id="node1" class="node"><title>keep</title>
<ellipse fill="none" stroke="black" cx="43" cy="-50" rx="27" ry="18"/>
<text text-anchor="middle" x="43" y="-45.8" font-family="Times,serif" font-size="14.00">keep</text>
</g>
<!-- map -->
<g id="node2" class="node"><title>map</title>
<ellipse fill="none" stroke="black" cx="177" cy="-50" rx="27" ry="18"/>
<text text-anchor="middle" x="177" y="-45.8" font-family="Times,serif" font-size="14.00">map</text>
</g>
<!-- keep&#45;&gt;map -->
<g id="edge1" class="edge"><title>keep&#45;&gt;map</title>
<path fill="none" stroke="black" d="M66.4701,-40.7567C73.2687,-38.3945 80.8343,-36.1879 88,-35 107.292,-31.8019 112.708,-31.8019 132,-35 135.919,-35.6496 139.957,-36.6039 143.924,-37.7217"/>
<polygon fill="black" stroke="black" points="142.94,-41.0812 153.53,-40.7567 145.049,-34.4065 142.94,-41.0812"/>
<text text-anchor="middle" x="110" y="-37.8" font-family="Times,serif" font-size="14.00">move</text>
</g>
<!-- map&#45;&gt;keep -->
<g id="edge3" class="edge"><title>map&#45;&gt;keep</title>
<path fill="none" stroke="black" d="M149.975,-50C130.012,-50 102.22,-50 80.105,-50"/>
<polygon fill="black" stroke="black" points="80.079,-46.5001 70.079,-50 80.0789,-53.5001 80.079,-46.5001"/>
<text text-anchor="middle" x="110" y="-52.8" font-family="Times,serif" font-size="14.00">hospital</text>
</g>
<!-- supply -->
<g id="node3" class="node"><title>supply</title>
<ellipse fill="none" stroke="black" cx="312" cy="-50" rx="33.8857" ry="18"/>
<text text-anchor="middle" x="312" y="-45.8" font-family="Times,serif" font-size="14.00">supply</text>
</g>
<!-- map&#45;&gt;supply -->
<g id="edge2" class="edge"><title>map&#45;&gt;supply</title>
<path fill="none" stroke="black" d="M200.47,-40.7567C207.269,-38.3945 214.834,-36.1879 222,-35 238.662,-32.238 243.284,-32.5927 260,-35 264.489,-35.6465 269.134,-36.5974 273.709,-37.7122"/>
<polygon fill="black" stroke="black" points="272.961,-41.1353 283.527,-40.3596 274.783,-34.3767 272.961,-41.1353"/>
<text text-anchor="middle" x="241" y="-37.8" font-family="Times,serif" font-size="14.00">death</text>
</g>
<!-- supply&#45;&gt;map -->
<g id="edge4" class="edge"><title>supply&#45;&gt;map</title>
<path fill="none" stroke="black" d="M278.177,-50C258.874,-50 234.427,-50 214.516,-50"/>
<polygon fill="black" stroke="black" points="214.277,-46.5001 204.277,-50 214.276,-53.5001 214.277,-46.5001"/>
<text text-anchor="middle" x="241" y="-52.8" font-family="Times,serif" font-size="14.00">recruit</text>
</g>
</g>
</svg>
